<svg id="visual" viewBox="0 0 400 50" width="400" height="50" xmlns="http://www.w3.org/2000/svg" xmlns:xlink="http://www.w3.org/1999/xlink" version="1.1"><rect x="0" y="0" width="400" height="50" fill="#f4f4f4"></rect><path d="M0 15L2.8 14.5C5.7 14 11.3 13 17.2 12.2C23 11.3 29 10.7 34.8 10.5C40.7 10.3 46.3 10.7 52.2 10.3C58 10 64 9 69.8 10.3C75.7 11.7 81.3 15.3 87 17.3C92.7 19.3 98.3 19.7 104.2 18.3C110 17 116 14 121.8 12.2C127.7 10.3 133.3 9.7 139.2 10.2C145 10.7 151 12.3 156.8 13.7C162.7 15 168.3 16 174 15.3C179.7 14.7 185.3 12.3 191.2 12.8C197 13.3 203 16.7 208.8 17.7C214.7 18.7 220.3 17.3 226 17.8C231.7 18.3 237.3 20.7 243.2 20.8C249 21 255 19 260.8 18.3C266.7 17.7 272.3 18.3 278.2 17.5C284 16.7 290 14.3 295.8 14.7C301.7 15 307.3 18 313 17.8C318.7 17.7 324.3 14.3 330.2 13.2C336 12 342 13 347.8 14.2C353.7 15.3 359.3 16.7 365.2 17.8C371 19 377 20 382.8 19.5C388.7 19 394.3 17 397.2 16L400 15L400 51L397.2 51C394.3 51 388.7 51 382.8 51C377 51 371 51 365.2 51C359.3 51 353.7 51 347.8 51C342 51 336 51 330.2 51C324.3 51 318.7 51 313 51C307.3 51 301.7 51 295.8 51C290 51 284 51 278.2 51C272.3 51 266.7 51 260.8 51C255 51 249 51 243.2 51C237.3 51 231.7 51 226 51C220.3 51 214.7 51 208.8 51C203 51 197 51 191.2 51C185.3 51 179.7 51 174 51C168.3 51 162.7 51 156.8 51C151 51 145 51 139.2 51C133.3 51 127.7 51 121.8 51C116 51 110 51 104.2 51C98.3 51 92.7 51 87 51C81.3 51 75.7 51 69.8 51C64 51 58 51 52.2 51C46.3 51 40.7 51 34.8 51C29 51 23 51 17.2 51C11.3 51 5.7 51 2.8 51L0 51Z" fill="#124559"></path><path d="M0 16L2.8 16.5C5.7 17 11.3 18 17.2 18.3C23 18.7 29 18.3 34.8 17.7C40.7 17 46.3 16 52.2 17.5C58 19 64 23 69.8 25C75.7 27 81.3 27 87 25.8C92.7 24.7 98.3 22.3 104.2 21.7C110 21 116 22 121.8 20.8C127.7 19.7 133.3 16.3 139.2 15.3C145 14.3 151 15.7 156.8 15.8C162.7 16 168.3 15 174 15.7C179.7 16.3 185.3 18.7 191.2 19.7C197 20.7 203 20.3 208.8 20.7C214.7 21 220.3 22 226 22.5C231.7 23 237.3 23 243.2 22.3C249 21.7 255 20.3 260.8 20.5C266.7 20.7 272.3 22.3 278.2 22.7C284 23 290 22 295.8 20.8C301.7 19.7 307.3 18.3 313 17.2C318.7 16 324.3 15 330.2 15.3C336 15.7 342 17.3 347.8 19.2C353.7 21 359.3 23 365.2 22.7C371 22.3 377 19.7 382.8 18.8C388.7 18 394.3 19 397.2 19.5L400 20L400 51L397.2 51C394.3 51 388.7 51 382.8 51C377 51 371 51 365.2 51C359.3 51 353.7 51 347.8 51C342 51 336 51 330.2 51C324.3 51 318.7 51 313 51C307.3 51 301.7 51 295.8 51C290 51 284 51 278.2 51C272.3 51 266.7 51 260.8 51C255 51 249 51 243.2 51C237.3 51 231.7 51 226 51C220.3 51 214.7 51 208.8 51C203 51 197 51 191.2 51C185.3 51 179.7 51 174 51C168.3 51 162.7 51 156.8 51C151 51 145 51 139.2 51C133.3 51 127.7 51 121.8 51C116 51 110 51 104.2 51C98.3 51 92.7 51 87 51C81.3 51 75.7 51 69.8 51C64 51 58 51 52.2 51C46.3 51 40.7 51 34.8 51C29 51 23 51 17.2 51C11.3 51 5.7 51 2.8 51L0 51Z" fill="#205266"></path><path d="M0 27L2.8 26.7C5.7 26.3 11.3 25.7 17.2 26.2C23 26.7 29 28.3 34.8 27.5C40.7 26.7 46.3 23.3 52.2 23.2C58 23 64 26 69.8 26.2C75.7 26.3 81.3 23.7 87 23.7C92.7 23.7 98.3 26.3 104.2 27.3C110 28.3 116 27.7 121.8 27.5C127.7 27.3 133.3 27.7 139.2 26.7C145 25.7 151 23.3 156.8 22.5C162.7 21.7 168.3 22.3 174 23.3C179.7 24.3 185.3 25.7 191.2 26C197 26.3 203 25.7 208.8 25.5C214.7 25.3 220.3 25.7 226 25.5C231.7 25.3 237.3 24.7 243.2 25.3C249 26 255 28 260.8 28.5C266.7 29 272.3 28 278.2 27.2C284 26.3 290 25.7 295.8 26.5C301.7 27.3 307.3 29.7 313 29.5C318.7 29.3 324.3 26.7 330.2 26.5C336 26.3 342 28.7 347.8 28C353.7 27.3 359.3 23.7 365.2 21.8C371 20 377 20 382.8 20.2C388.7 20.3 394.3 20.7 397.2 20.8L400 21L400 51L397.2 51C394.3 51 388.7 51 382.8 51C377 51 371 51 365.2 51C359.3 51 353.7 51 347.8 51C342 51 336 51 330.2 51C324.3 51 318.7 51 313 51C307.3 51 301.7 51 295.8 51C290 51 284 51 278.2 51C272.3 51 266.7 51 260.8 51C255 51 249 51 243.2 51C237.3 51 231.7 51 226 51C220.3 51 214.7 51 208.8 51C203 51 197 51 191.2 51C185.3 51 179.7 51 174 51C168.3 51 162.7 51 156.8 51C151 51 145 51 139.2 51C133.3 51 127.7 51 121.8 51C116 51 110 51 104.2 51C98.3 51 92.7 51 87 51C81.3 51 75.7 51 69.8 51C64 51 58 51 52.2 51C46.3 51 40.7 51 34.8 51C29 51 23 51 17.2 51C11.3 51 5.7 51 2.8 51L0 51Z" fill="#2d5f73"></path><path d="M0 28L2.8 28.3C5.7 28.7 11.3 29.3 17.2 30.3C23 31.3 29 32.7 34.8 32.2C40.7 31.7 46.3 29.3 52.2 28.5C58 27.7 64 28.3 69.8 29.8C75.7 31.3 81.3 33.7 87 34.3C92.7 35 98.3 34 104.2 34C110 34 116 35 121.8 34.2C127.7 33.3 133.3 30.7 139.2 30.3C145 30 151 32 156.8 32.7C162.7 33.3 168.3 32.7 174 32.2C179.7 31.7 185.3 31.3 191.2 30.5C197 29.7 203 28.3 208.8 27.7C214.7 27 220.3 27 226 27.3C231.7 27.7 237.3 28.3 243.2 28.2C249 28 255 27 260.8 28.2C266.7 29.3 272.3 32.7 278.2 34.2C284 35.7 290 35.3 295.8 34.3C301.7 33.3 307.3 31.7 313 31.3C318.7 31 324.3 32 330.2 31.3C336 30.7 342 28.3 347.8 27.8C353.7 27.3 359.3 28.7 365.2 28.8C371 29 377 28 382.8 28C388.7 28 394.3 29 397.2 29.5L400 30L400 51L397.2 51C394.3 51 388.7 51 382.8 51C377 51 371 51 365.2 51C359.3 51 353.7 51 347.8 51C342 51 336 51 330.2 51C324.3 51 318.7 51 313 51C307.3 51 301.7 51 295.8 51C290 51 284 51 278.2 51C272.3 51 266.7 51 260.8 51C255 51 249 51 243.2 51C237.3 51 231.7 51 226 51C220.3 51 214.7 51 208.8 51C203 51 197 51 191.2 51C185.3 51 179.7 51 174 51C168.3 51 162.7 51 156.8 51C151 51 145 51 139.2 51C133.3 51 127.7 51 121.8 51C116 51 110 51 104.2 51C98.3 51 92.7 51 87 51C81.3 51 75.7 51 69.8 51C64 51 58 51 52.2 51C46.3 51 40.7 51 34.8 51C29 51 23 51 17.2 51C11.3 51 5.7 51 2.8 51L0 51Z" fill="#396d81"></path><path d="M0 37L2.8 36.3C5.7 35.7 11.3 34.3 17.2 33.8C23 33.3 29 33.7 34.8 34C40.7 34.3 46.3 34.7 52.2 35.7C58 36.7 64 38.3 69.8 39C75.7 39.7 81.3 39.3 87 39.3C92.7 39.3 98.3 39.7 104.2 39.8C110 40 116 40 121.8 39.7C127.7 39.3 133.3 38.7 139.2 37.8C145 37 151 36 156.8 35.2C162.7 34.3 168.3 33.7 174 34.2C179.7 34.7 185.3 36.3 191.2 37C197 37.7 203 37.3 208.8 37.3C214.7 37.3 220.3 37.7 226 37.5C231.7 37.3 237.3 36.7 243.2 36C249 35.3 255 34.7 260.8 34C266.7 33.3 272.3 32.7 278.2 33.5C284 34.3 290 36.7 295.8 37.8C301.7 39 307.3 39 313 39.2C318.7 39.3 324.3 39.7 330.2 38.5C336 37.3 342 34.7 347.8 33.5C353.7 32.3 359.3 32.7 365.2 34.2C371 35.7 377 38.3 382.8 39.5C388.7 40.7 394.3 40.3 397.2 40.2L400 40L400 51L397.2 51C394.3 51 388.7 51 382.8 51C377 51 371 51 365.2 51C359.3 51 353.7 51 347.8 51C342 51 336 51 330.2 51C324.3 51 318.7 51 313 51C307.3 51 301.7 51 295.8 51C290 51 284 51 278.2 51C272.3 51 266.7 51 260.8 51C255 51 249 51 243.2 51C237.3 51 231.7 51 226 51C220.3 51 214.7 51 208.8 51C203 51 197 51 191.2 51C185.3 51 179.7 51 174 51C168.3 51 162.7 51 156.8 51C151 51 145 51 139.2 51C133.3 51 127.7 51 121.8 51C116 51 110 51 104.2 51C98.3 51 92.7 51 87 51C81.3 51 75.7 51 69.8 51C64 51 58 51 52.2 51C46.3 51 40.7 51 34.8 51C29 51 23 51 17.2 51C11.3 51 5.7 51 2.8 51L0 51Z" fill="#467b8f"></path><path d="M0 42L2.8 41.5C5.7 41 11.3 40 17.2 39.7C23 39.3 29 39.7 34.8 40.5C40.7 41.3 46.3 42.7 52.2 42.7C58 42.7 64 41.3 69.8 41C75.7 40.7 81.3 41.3 87 41.7C92.7 42 98.3 42 104.2 41.7C110 41.3 116 40.7 121.8 41C127.7 41.3 133.3 42.7 139.2 42.5C145 42.3 151 40.7 156.8 39.8C162.7 39 168.3 39 174 39.7C179.7 40.3 185.3 41.7 191.2 42.7C197 43.7 203 44.3 208.8 44C214.7 43.7 220.3 42.3 226 41.5C231.7 40.7 237.3 40.3 243.2 40.8C249 41.3 255 42.7 260.8 42.8C266.7 43 272.3 42 278.2 41.3C284 40.7 290 40.3 295.8 40.5C301.7 40.7 307.3 41.3 313 41.2C318.7 41 324.3 40 330.2 40.3C336 40.7 342 42.3 347.8 43C353.7 43.7 359.3 43.3 365.2 42.5C371 41.7 377 40.3 382.8 40.2C388.7 40 394.3 41 397.2 41.5L400 42L400 51L397.2 51C394.3 51 388.7 51 382.8 51C377 51 371 51 365.2 51C359.3 51 353.7 51 347.8 51C342 51 336 51 330.2 51C324.3 51 318.7 51 313 51C307.3 51 301.7 51 295.8 51C290 51 284 51 278.2 51C272.3 51 266.7 51 260.8 51C255 51 249 51 243.2 51C237.3 51 231.7 51 226 51C220.3 51 214.7 51 208.8 51C203 51 197 51 191.2 51C185.3 51 179.7 51 174 51C168.3 51 162.7 51 156.8 51C151 51 145 51 139.2 51C133.3 51 127.7 51 121.8 51C116 51 110 51 104.2 51C98.3 51 92.7 51 87 51C81.3 51 75.7 51 69.8 51C64 51 58 51 52.2 51C46.3 51 40.7 51 34.8 51C29 51 23 51 17.2 51C11.3 51 5.7 51 2.8 51L0 51Z" fill="#53899d"></path></svg>